<svg width="60" height="60" viewBox="0 0 60 60" fill="none" xmlns="http://www.w3.org/2000/svg">
<defs>
  <radialGradient id="wsp-bg" cx="50%" cy="50%" r="50%">
    <stop offset="0%" stop-color="#43e97b"/>
    <stop offset="100%" stop-color="#38f9d7"/>
  </radialGradient>
  <filter id="wsp-shadow" x="-10%" y="-10%" width="120%" height="120%">
    <feDropShadow dx="0" dy="2" stdDeviation="2" flood-color="#1b5e20" flood-opacity="0.18"/>
  </filter>
</defs>
<circle cx="30" cy="30" r="28" fill="url(#wsp-bg)" filter="url(#wsp-shadow)"/>
<path d="M30 16C22.268 16 16 22.268 16 30c0 2.36.65 4.62 1.88 6.62l-1.25 4.58a1.5 1.5 0 0 0 1.84 1.84l4.58-1.25A13.93 13.93 0 0 0 30 44c7.732 0 14-6.268 14-14s-6.268-14-14-14zm0 24a11.93 11.93 0 0 1-6.1-1.7l-.43-.25-2.72.74.74-2.72-.25-.43A11.93 11.93 0 1 1 30 40zm6.13-8.47c-.34-.17-2.01-.99-2.32-1.1-.31-.12-.54-.17-.77.17-.23.34-.88 1.1-1.08 1.33-.2.23-.4.25-.74.08-.34-.17-1.44-.53-2.74-1.7-1.01-.9-1.7-2.01-1.9-2.35-.2-.34-.02-.52.15-.69.16-.16.34-.4.51-.6.17-.2.23-.34.34-.57.11-.23.06-.43-.03-.6-.09-.17-.77-1.86-1.06-2.54-.28-.68-.57-.59-.77-.6-.2-.01-.43-.01-.66-.01-.23 0-.6.09-.91.43-.31.34-1.2 1.17-1.2 2.85 0 1.68 1.23 3.31 1.4 3.54.17.23 2.42 3.7 5.87 5.04.82.32 1.46.51 1.96.65.82.21 1.57.18 2.16.11.66-.08 2.01-.82 2.3-1.61.28-.79.28-1.47.2-1.61-.08-.14-.31-.23-.65-.4z" fill="#fff"/>
</svg>
